<?xml version="1.0" encoding="UTF-8" standalone="no"?>
<!-- Created with Inkscape (http://www.inkscape.org/) -->

<svg
   xmlns:dc="http://purl.org/dc/elements/1.1/"
   xmlns:cc="http://creativecommons.org/ns#"
   xmlns:rdf="http://www.w3.org/1999/02/22-rdf-syntax-ns#"
   xmlns:svg="http://www.w3.org/2000/svg"
   xmlns="http://www.w3.org/2000/svg"
   xmlns:sodipodi="http://sodipodi.sourceforge.net/DTD/sodipodi-0.dtd"
   xmlns:inkscape="http://www.inkscape.org/namespaces/inkscape"
   width="210mm"
   height="297mm"
   viewBox="0 0 744.09448819 1052.3622047"
   id="svg2"
   version="1.1"
   inkscape:version="0.91 r"
   sodipodi:docname="final.svg">
  <defs
     id="defs4" />
  <sodipodi:namedview
     id="base"
     pagecolor="#ffffff"
     bordercolor="#666666"
     borderopacity="1.0"
     inkscape:pageopacity="0.0"
     inkscape:pageshadow="2"
     inkscape:zoom="0.35"
     inkscape:cx="517.85311"
     inkscape:cy="359.31099"
     inkscape:document-units="px"
     inkscape:current-layer="layer1"
     showgrid="false"
     showguides="true"
     inkscape:guide-bbox="true"
     inkscape:window-width="1366"
     inkscape:window-height="715"
     inkscape:window-x="0"
     inkscape:window-y="28"
     inkscape:window-maximized="1">
    <sodipodi:guide
       position="0,535.38086"
       orientation="0,1"
       id="guide4240" />
    <sodipodi:guide
       position="40.000001,852.85717"
       orientation="1,0"
       id="guide4415" />
    <sodipodi:guide
       position="112.85715,800.00003"
       orientation="0,1"
       id="guide4454" />
    <sodipodi:guide
       position="2.8571429,300.00001"
       orientation="0,1"
       id="guide4456" />
  </sodipodi:namedview>
  <metadata
     id="metadata7">
    <rdf:RDF>
      <cc:Work
         rdf:about="">
        <dc:format>image/svg+xml</dc:format>
        <dc:type
           rdf:resource="http://purl.org/dc/dcmitype/StillImage" />
        <dc:title></dc:title>
      </cc:Work>
    </rdf:RDF>
  </metadata>
  <g
     inkscape:label="Camada 1"
     inkscape:groupmode="layer"
     id="layer1">
    <g
       id="g4458">
      <path
         inkscape:connector-curvature="0"
         id="path4423"
         d="m 0.38107945,186.3843 0,66.02509 A 40.053568,33.027345 0 0 0 40.014792,219.39405 40.053568,33.027345 0 0 0 0.38107945,186.3843 Z"
         style="fill:none;fill-opacity:1;stroke:#000000;stroke-width:0.7621429;stroke-miterlimit:4;stroke-dasharray:2.28642865, 2.28642865;stroke-dashoffset:0;stroke-opacity:0.99470903" />
      <path
         inkscape:connector-curvature="0"
         id="path4423-6"
         d="m 0.37762388,753.94914 0,66.03193 A 39.338548,33.030759 0 0 0 39.303809,786.9623 39.338548,33.030759 0 0 0 0.37762388,753.94914 Z"
         style="fill:none;fill-opacity:1;stroke:#000000;stroke-width:0.75534856;stroke-miterlimit:4;stroke-dasharray:2.26604565, 2.26604565;stroke-dashoffset:0;stroke-opacity:0.99470903" />
      <rect
         y="4.0610919"
         x="4.1010571"
         height="1044.9542"
         width="735.8924"
         id="rect4417"
         style="fill:none;fill-opacity:1;stroke:#32de5f;stroke-width:7.09666204;stroke-miterlimit:4;stroke-dasharray:none;stroke-opacity:0.99470903" />
      <path
         style="fill:#000000;fill-opacity:0.18404908;stroke:#00ffae;stroke-opacity:0"
         d="m 311.96197,652.56025 c -32.9175,-22.54386 -60.50556,-41.42504 -61.30687,-41.95819 l -1.457,-0.96937 0,-83.475 0,-83.47501 61.17147,-41.85 c 33.6443,-23.0175 61.3961,-41.85 61.6706,-41.85 0.2744,0 28.0294,18.83239 61.6776,41.84975 l 61.1786,41.84974 0,83.4824 0,83.4824 -22.3637,15.29286 c -12.3001,8.41107 -30.3732,20.76961 -40.1625,27.46341 -9.7893,6.6938 -27.215,18.61479 -38.7238,26.49109 -11.5087,7.8763 -21.1275,14.39574 -21.375,14.48764 -0.2475,0.0919 -27.3825,-18.27787 -60.3,-40.82172 z m 93.0154,6.72498 c 29.4504,-20.15388 59.4521,-40.6685 73.4846,-50.24751 2.72251,-1.85846 5.4056,-3.78579 5.9625,-4.28296 l 1.0125,-0.90396 -0.01,-77.65905 c 0,-42.71249 -0.1556,-77.87364 -0.3375,-78.1359 -0.1818,-0.26226 -3.1656,-2.4088 -6.6306,-4.7701 -3.465,-2.36129 -19.464,-13.30092 -35.5533,-24.31028 -16.0894,-11.00937 -33.8081,-23.12669 -39.375,-26.9274 -5.56689,-3.8007 -14.9297,-10.20602 -20.8062,-14.23404 l -10.68459,-7.32368 -28.0154,19.1641 c -15.4085,10.54026 -33.1792,22.69893 -39.4905,27.01927 -6.3112,4.32034 -18.8662,12.9071 -27.89997,19.08167 -9.0337,6.17457 -16.7794,11.52281 -17.2125,11.88499 -0.74441,0.62248 -0.7875,4.92236 -0.7875,78.6317 l 0,77.9732 23.73747,16.23345 c 55.5259,37.97267 78.5253,53.72074 83.81249,57.38781 3.0938,2.14573 5.66571,3.92154 5.7154,3.94624 0.05,0.0247 14.9335,-10.1127 33.075,-22.52755 z m -72.95979,-79.59089 c -21.86471,-45.05233 -39.6755,-81.98879 -39.57981,-82.08102 0.4234,-0.40761 7.78791,-3.85564 8.2351,-3.85564 0.2737,0 9.9043,19.38938 21.4013,43.08751 22.4641,46.30387 28.0291,57.76766 41.1779,84.825 4.6607,9.59062 8.6101,17.4375 8.7766,17.4375 0.1664,0 2.1981,-3.89813 4.5148,-8.6625 2.3168,-4.76438 7.1686,-14.7375 10.7819,-22.1625 3.6133,-7.425 17.5954,-36.23063 31.0713,-64.0125 13.4759,-27.78188 24.704,-50.51251 24.9513,-50.51251 0.6788,0 8.339,3.70655 8.339,4.03502 0,0.15718 -6.1986,13.03297 -13.7747,28.61288 -7.5761,15.57991 -15.1408,31.16211 -16.8105,34.62711 -1.6696,3.465 -8.0027,16.52625 -14.0736,29.025 -23.107,47.57298 -27.9635,57.5839 -31.272,64.4625 -1.8749,3.89813 -3.5385,7.0875 -3.6968,7.0875 -0.15839,0 -18.17719,-36.86101 -40.04179,-81.91335 z m 35.76039,29.60085 c -0.1631,-0.50733 -1.1424,-31.43681 -1.1506,-36.3375 0,-1.86412 -0.2705,-2.33959 -3.3658,-5.98453 -5.7857,-6.81302 -6.9648,-9.68621 -6.9626,-16.96547 0,-8.03535 2.4365,-14.53603 6.6436,-17.74352 l 2.4023,-1.83148 -0.31279,-11.02501 c -0.1721,-6.06375 -0.4382,-14.24564 -0.5915,-18.18198 l -0.2786,-7.157 -3.8251,-1.19123 c -8.9135,-2.77592 -13.98231,-7.44233 -16.9425,-15.59755 -2.5131,-6.92349 -2.2969,-12.23518 0.75189,-18.47124 3.08191,-6.30404 6.9908,-9.2617 15.1114,-11.43399 l 3.55431,-0.9508 -0.1361,-2.0956 c -0.159,-2.44773 1.2447,-5.58989 3.1001,-6.93972 1.73219,-1.2602 4.461,-1.48666 6.4635,-0.53641 2.5966,1.23219 3.8623,3.53312 4.1682,7.57776 0.2126,2.81177 0.4062,3.455 1.1067,3.67733 0.467,0.1482 2.0913,1.26643 3.6096,2.48495 l 2.76049,2.21548 4.0888,0.003 c 2.24881,0.001 4.8624,0.21736 5.80811,0.47995 2.1352,0.59292 4.92079,3.06306 6.51799,5.7799 1.1853,2.01611 1.2147,2.2478 1.3066,10.27008 0.057,4.97185 0.29091,8.57557 0.59371,9.14126 0.37139,0.69402 0.36329,1.09831 -0.032,1.57428 -0.7098,0.85528 -1.29451,0.45146 -3.78,-2.61048 -1.6328,-2.0115 -2.3753,-2.5875 -3.3356,-2.5875 -2.5303,0 -2.9007,1.6919 -1.3655,6.23781 0.5224,1.54691 0.8258,2.93653 0.6743,3.08806 -0.6536,0.65359 -2.5132,-1.09487 -5.232,-4.91937 -5.7717,-8.11885 -6.2268,-8.89623 -6.7398,-11.51378 -0.7799,-3.97919 -1.2973,-4.92146 -3.5055,-6.38411 -1.1281,-0.74742 -2.1989,-1.3588 -2.3796,-1.3588 -0.3454,0 -0.7003,5.67059 -1.0504,16.78375 l -0.2097,6.65874 3.2339,2.06001 c 8.9954,5.72996 13.6096,11.11069 16.3342,19.0475 1.3077,3.80929 1.2074,12.65765 -0.1907,16.83087 -2.2721,6.78172 -5.661,12.09785 -10.9479,17.17339 -1.8214,1.74858 -4.4298,3.81267 -5.7966,4.58686 -4.219,2.38987 -4.4077,2.73811 -4.5695,8.43389 l -0.1407,4.95 3.0336,4.55891 c 3.9485,5.93371 6.7479,11.25219 8.1824,15.54543 2.1399,6.4044 1.3557,13.43336 -2.1699,19.44942 -2.5114,4.28545 -7.6189,8.82124 -9.933,8.82124 -0.5399,0 -0.6929,0.54654 -0.6929,2.475 l 0,2.475 -1.8141,0 c -1.0549,0 -1.8898,-0.23542 -1.9949,-0.5625 z m 5.8797,-17.07926 c 0.8246,-4.06974 0.6738,-9.13573 -0.338,-11.35312 l -0.6022,-1.31987 -0.3143,1.76987 c -0.1729,0.97344 -0.3132,5.11113 -0.3117,9.19488 0,7.93272 0.2502,8.20266 1.5662,1.70824 z m 5.7817,-72.32748 c 3.4994,-4.76717 3.8479,-8.0344 1.3767,-12.9078 -1.5475,-3.05171 -5.3079,-7.8283 -5.7909,-7.35579 -0.13619,0.1332 -0.3908,5.89684 -0.5658,12.80809 l -0.3183,12.5659 1.8477,-1.4634 c 1.0163,-0.80487 2.569,-2.44602 3.4506,-3.647 z m -15.8199,-50.54327 c -0.121,-5.25937 -0.3551,-10.13138 -0.5202,-10.82667 l -0.3,-1.26418 -1.5497,1.04431 c -3.4604,2.33195 -6.0274,7.57119 -6.04629,12.34014 -0.012,3.08741 1.4941,5.06213 5.2516,6.8845 1.5439,0.74877 2.93709,1.36658 3.09589,1.37291 0.1589,0.006 0.1898,-4.29163 0.069,-9.55101 z m 36.2275,0.4725 c 0.8566,-0.85658 0.6612,-3.71083 -0.3145,-4.5938 -0.8126,-0.7354 -0.8898,-0.72288 -1.575,0.25538 -0.8627,1.2317 -0.9251,2.76308 -0.1622,3.98453 0.63781,1.02136 1.27441,1.13116 2.0517,0.35389 z"
         id="path5791"
         inkscape:connector-curvature="0" />
      <text
         xml:space="preserve"
         style="font-style:normal;font-weight:normal;font-size:40px;line-height:125%;font-family:Sans;text-align:center;letter-spacing:0px;word-spacing:0px;text-anchor:middle;fill:#000000;fill-opacity:1;stroke:none;stroke-width:1px;stroke-linecap:butt;stroke-linejoin:miter;stroke-opacity:1"
         x="371.16833"
         y="516.89398"
         id="text5793"
         sodipodi:linespacing="125%"><tspan
           style="-inkscape-font-specification:Arial;font-family:Arial;font-weight:normal;font-style:normal;font-stretch:normal;font-variant:normal;font-size:50px"
           sodipodi:role="line"
           id="tspan5795"
           x="371.16833"
           y="516.89398">Exame Hematológico</tspan><tspan
           style="-inkscape-font-specification:Arial;font-family:Arial;font-weight:normal;font-style:normal;font-stretch:normal;font-variant:normal;font-size:50px"
           sodipodi:role="line"
           x="371.16833"
           y="566.89398"
           id="tspan5797">Resultado</tspan></text>
      <g
         transform="translate(0,38)"
         id="g4419">
        <path
           style="fill:#b10000;fill-opacity:1"
           d="m 614.89028,0 -5.29882,6.4160156 c -1.45668,1.7641644 -3.34984,4.1659874 -5.22657,6.6132814 1.87729,-2.447597 3.7714,-4.8485814 5.22852,-6.6132814 L 614.89028,0 Z M 88.4645,0.09960937 l 0,0.001953 15.7461,0 15.74609,0 0,-0.001953 -15.74609,0 -15.7461,0 z m 196.33985,0 0,0.001953 56.74023,0 56.74024,0 0,13.24218663 0,13.240235 0.002,0 0,-13.242188 0,-13.24218676 -56.74219,0 -56.74023,0 z m 113.48047,26.48437563 -40.97852,0 -40.97852,0 0,0.002 40.97852,0 40.97852,0 0,-0.002 z m 0.51367,-26.48437563 0.002,0.001953 20.7832,0 20.78516,0 0,-0.001953 -20.78516,0 -20.78515,0 z m 0.002,0.001953 -0.004,0 4.92382,5.74609373 -4.91992,-5.74609373 z m 161.15234,0 -32.42382,0.0117187 -32.42383,0.0117188 0,0.001953 32.42383,-0.0117188 32.42187,-0.0117188 8.10547,10.84179673 c 4.45789,5.962894 10.50217,14.042993 13.42969,17.957031 -2.92729,-3.91372 -8.96954,-11.993701 -13.42774,-17.957031 L 559.95278,0.1015625 Z m -373.51171,0.20117187 51.98047,0.30859375 7.20507,2.86914061 -7.20507,-2.87109373 -51.98047,-0.30664063 z m 448.52734,0.001953 20.07617,0.30664062 -11.89453,14.76757814 11.89649,-14.76757814 0,-0.001953 -20.07813,-0.3046875 z M 248.81802,4.8476562 c 1.54285,0.7114812 3.0057,1.4648506 4.39258,2.2617188 -1.3869,-0.7968521 -2.84971,-1.5502448 -4.39258,-2.2617188 z m 4.39258,2.2617188 c 0.92458,0.5312454 1.81559,1.081762 2.67187,1.6523437 -0.8563,-0.5705678 -1.74727,-1.121109 -2.67187,-1.6523437 z m 3.93164,2.5234375 c 0.82243,0.5906665 1.60988,1.2023185 2.36523,1.8339845 -0.75538,-0.631648 -1.54278,-1.243334 -2.36523,-1.8339845 z m 191.90625,1.6191405 c 4.17603,5.364449 7.68792,10.084054 8.50195,11.40625 -0.8128,-1.32084 -4.3253,-6.040976 -8.50195,-11.40625 z m 77.47851,0.486329 c -0.0624,0.06111 -0.11677,0.13851 -0.16796,0.230468 -0.34807,0.62522 -7.0911,8.982916 -14.98633,18.572266 7.89523,-9.58934 14.64021,-17.947046 14.98828,-18.572266 0.0507,-0.09108 0.10437,-0.169612 0.16601,-0.230468 z m 1.85938,0.794921 c 0.84574,0.782618 2.05651,2.113004 3.82617,4.208985 -1.77109,-2.097666 -2.98026,-3.426482 -3.82617,-4.208985 z m -266.71289,0.890626 c 0.34454,0.336887 0.68163,0.67972 1.00976,1.027343 -0.32846,-0.347954 -0.66485,-0.690146 -1.00976,-1.027343 z m 1.00976,1.027343 c 0.65626,0.695246 1.27988,1.411372 1.8711,2.150391 -0.59125,-0.738999 -1.21481,-1.455165 -1.8711,-2.150391 z m 3.54883,4.435547 c 1.58066,2.351218 2.87503,4.906695 3.89258,7.681641 -1.01752,-2.775024 -2.31192,-5.330374 -3.89258,-7.681641 z m 191.5625,4.328125 c 0.13151,0.279252 0.4513,0.773505 0.89649,1.400391 -0.44513,-0.626755 -0.76452,-1.120682 -0.89649,-1.400391 z m -187.66992,3.355469 c 0.33901,0.92463 0.64766,1.873768 0.92578,2.847656 -0.2781,-0.973903 -0.58679,-1.923013 -0.92578,-2.847656 z m 190.88281,1.05664 c 1.35267,1.653473 2.84387,3.602464 3.80078,4.951172 -0.95658,-1.348656 -2.44836,-3.297941 -3.80078,-4.951172 z m -259.85547,0.125 c -3.2744,5.6e-4 -6.89745,0.0278 -10.91601,0.07422 l -24.76758,0.28711 24.76758,-0.285157 c 12.05568,-0.139248 20.53897,-0.102378 26.79492,0.289063 -4.17053,-0.26099 -9.33009,-0.366353 -15.87891,-0.365235 z m 15.87891,0.365235 c 5.21329,0.326201 8.8797,0.898204 11.7793,1.818359 -2.89948,-0.920189 -6.56613,-1.492122 -11.7793,-1.818359 z m 11.7793,1.818359 c 1.73975,0.552094 3.20304,1.229752 4.55859,2.054688 -1.35552,-0.824947 -2.81891,-1.502574 -4.55859,-2.054688 z m 4.55859,2.054688 c 0.9037,0.549957 1.7596,1.1659 2.61719,1.853515 0.15471,0.12405 0.31193,0.265872 0.4707,0.423829 -0.1591,-0.158351 -0.31567,-0.301481 -0.4707,-0.425782 -0.85759,-0.687615 -1.71351,-1.301598 -2.61719,-1.851562 z m 232.19336,1.703125 c 0.35036,0.565722 0.75333,1.079616 1.11914,1.453125 -0.36598,-0.373179 -0.76849,-0.88692 -1.11914,-1.453125 z m 1.11914,1.453125 c 0.36644,0.374146 0.69559,0.607422 0.90039,0.607422 0.1024,0 0.34244,-0.195164 0.68945,-0.544922 -0.34664,0.349157 -0.58713,0.542968 -0.68945,0.542968 -0.20463,0 -0.53441,-0.232289 -0.90039,-0.605468 z m -138.52539,11.810547 -0.28516,10.27539 c -0.15673,5.6515 -0.11656,10.464273 0.0899,10.695313 0.20639,0.23103 15.70828,0.419922 34.44922,0.419922 l 34.07422,0 0,-10.695313 0,-10.695312 -34.16407,0 -34.16406,0 z m 229.09375,0.925781 0,0.002 29.53125,0.04492 -29.53125,-0.04687 z m -423.30273,0.09375 0,0.002 15.75976,0 -15.75976,-0.002 z m 139.14843,18.287109 -15.43554,0.277344 -15.16016,0.273437 15.1582,-0.271484 15.4375,-0.279297 z m -138.69922,0.04687 0,0.002 15.31055,0 15.3125,0 0,-0.002 -15.31055,0 -15.3125,0 z m 306.05274,0 -0.002,0.002 27.41015,0 27.41016,0 0,-0.002 -27.41016,0 -27.4082,0 z m 119.33984,0 0,0.002 27.65039,0 27.65039,0 0,-0.002 -27.65039,0 -27.65039,0 z m 55.30078,0.002 20.14649,24.386719 c 9.69606,11.736099 17.93374,21.888319 19.93164,24.546869 C 653.16996,112.58759 644.934,102.4334 635.23794,90.697308 L 615.0895,66.3125 Z m -372.86914,0.507813 -1.0957,4.886719 c -0.13644,0.608207 -0.30356,1.202183 -0.49023,1.785156 0.18694,-0.583598 0.35559,-1.178227 0.49218,-1.787109 l 1.09571,-4.884766 -0.002,0 z m 30.875,6.412109 c 0,2.177919 -0.11359,4.278019 -0.34179,6.300781 0.22823,-2.022739 0.34179,-4.122862 0.34179,-6.300781 z m -0.34179,6.300781 c -0.22821,2.022763 -0.57067,3.96788 -1.02735,5.835938 0.45673,-1.868017 0.79912,-3.813198 1.02735,-5.835938 z m -1.02735,5.835896 c -0.31353,1.282493 -0.68609,2.526574 -1.10742,3.736328 0.42158,-1.210176 0.79373,-2.45335 1.10742,-3.736328 z m -31.6914,-10.248047 c -0.32195,0.769727 -0.69092,1.510725 -1.10157,2.222656 0.41069,-0.711912 0.77957,-1.452953 1.10157,-2.222656 z m -75.01563,1.376953 c 0,2.796053 0.0423,4.927829 0.13867,6.501953 -0.0965,-1.57431 -0.13867,-3.7059 -0.13867,-6.501953 z m 73.50391,1.523438 c -0.3014,0.475968 -0.61628,0.941495 -0.95703,1.386718 0.34108,-0.445541 0.65536,-0.910383 0.95703,-1.386718 z m -1.95117,2.568359 c -0.12271,0.13565 -0.2425,0.274221 -0.36915,0.40625 0.12666,-0.132029 0.24643,-0.270599 0.36915,-0.40625 z m 350.90039,0.525391 c -0.0263,-0.01838 -0.0756,-0.0042 -0.14649,0.03906 0.0699,-0.04247 0.11844,-0.05535 0.14453,-0.03711 0.20868,0.145862 1.83681,2.219108 4.28907,5.441406 -2.45288,-3.223295 -4.07841,-5.297474 -4.28711,-5.443359 z m -352.01368,0.615234 c -0.66004,0.615266 -1.37179,1.180059 -2.12109,1.699219 0.74963,-0.519456 1.46081,-1.083578 2.12109,-1.699219 z m 234.20704,0.96875 c 0.9577,1.35096 3.33551,4.392186 5.28515,6.757813 -1.94964,-2.36563 -4.32745,-5.406853 -5.28515,-6.757813 z m 5.28515,6.757813 c 1.70502,2.068842 3.17338,4.081839 3.55078,4.845703 -0.37647,-0.762825 -1.84486,-2.775768 -3.55078,-4.845703 z M 229.84732,85.322266 c -0.89161,0.326063 -1.96286,0.572557 -3.53907,0.759766 1.5766,-0.187257 2.64732,-0.433422 3.53907,-0.759766 z m 361.91211,1.238281 c 2.4529,3.223172 5.73125,7.595219 9.24414,12.339844 l 12.77539,17.251949 -12.77344,-17.251949 c -3.51253,-4.744144 -6.7933,-9.116642 -9.24609,-12.339844 z m 22.01953,29.591793 0,0.002 21.04687,0.28906 -21.04687,-0.29102 z M 478.59341,94.550782 c 0.0135,0.108794 0.25677,0.506439 0.68164,1.130859 -0.42469,-0.624183 -0.66725,-1.020989 -0.68164,-1.130859 z m 0.68164,1.132812 c 0.85116,1.250787 2.43621,3.411021 4.39453,5.990236 -1.95781,-2.578742 -3.54322,-4.739108 -4.39453,-5.990236 z m -213.45312,2.710938 c -0.30055,0.418735 -0.61046,0.832028 -0.92969,1.238281 0.31926,-0.406226 0.6291,-0.819575 0.92969,-1.238281 z m -4.06446,4.744138 c -0.98642,0.96821 -2.03882,1.89486 -3.15429,2.77735 1.11618,-0.8831 2.16734,-1.80841 3.15429,-2.77735 z m 265.96485,1.48438 c -0.2388,0.25893 -0.37686,0.39453 -0.40235,0.39453 -0.0504,0 -0.0798,0.0159 -0.11914,0.0156 0.0385,-2.5e-4 0.0694,-0.0137 0.11914,-0.0137 0.0255,0 0.16313,-0.13707 0.40235,-0.39648 z m -271.4375,3.00195 c -1.60325,1.10126 -3.32095,2.12494 -5.1543,3.07422 -0.41912,0.21701 -0.81346,0.41305 -1.21289,0.61328 0.39902,-0.20003 0.79422,-0.39455 1.21289,-0.61133 1.83335,-0.94928 3.55108,-1.97489 5.1543,-3.07617 z m -7.53516,4.25586 c -3.31751,1.57612 -6.36601,2.58853 -11.70703,3.22266 5.3417,-0.63428 8.38901,-1.64615 11.70703,-3.22266 z m -11.70703,3.22266 c -1.88006,0.22321 -4.04413,0.40108 -6.60547,0.54296 2.56133,-0.14191 4.72543,-0.31973 6.60547,-0.54296 z m -6.60547,0.54296 c -8.96469,0.49661 -22.7894,0.55024 -46.2793,0.5586 l -49.76172,0.0176 0,0.002 49.76172,-0.0176 c 23.4899,-0.008 37.31465,-0.0639 46.2793,-0.56055 z m 210.85742,-0.375 c -0.16101,0.1762 -0.35712,0.40238 -0.48047,0.52344 0.12347,-0.12111 0.31919,-0.34696 0.48047,-0.52344 z m -41.40625,0.44336 19.6875,0.50977 c 10.82877,0.28012 20.14789,0.28012 20.70899,0 0.0679,-0.0339 0.19243,-0.15489 0.29296,-0.23828 -0.10002,0.0829 -0.22534,0.20257 -0.29296,0.23633 -0.5611,0.28012 -9.88022,0.28012 -20.70899,0 l -19.6875,-0.50782 z m 160.86524,0 -32.88086,0.26563 -32.88086,0.26758 32.88086,-0.26563 32.88086,-0.26758 z m 94.875,0.19336 c 0.067,0.22665 -2.23923,0.40121 -6.00977,0.49805 3.77048,-0.0966 6.07679,-0.26944 6.00977,-0.49609 -4e-5,-1.2e-4 3e-5,-0.002 0,-0.002 z m -567.16407,0.31446 0,0.002 15.98633,0 15.98633,0 -15.98633,-0.002 -15.98633,0 z m 196.33985,0 0,0.002 56.29101,0 56.28907,0 0,-0.002 -56.28907,0 -56.29101,0 z m 353.41406,30.44921 c -2.55657,0.10923 -5.16397,0.66905 -7.57422,1.75977 -4.43497,2.00697 -5.5773,4.20482 -5.5332,10.64453 0.0622,9.08887 2.08971,10.8181 13.89453,11.84766 7.90443,0.68936 9.00125,1.7834 7.90039,7.87109 l -0.56641,3.12891 -6.71679,0 c -6.10287,0 -6.79975,-0.20895 -7.60743,-2.29102 -0.69652,-1.79561 -1.62793,-2.29297 -4.29687,-2.29297 -3.10915,0 -3.37129,0.2144 -3.01172,2.45703 0.61554,3.83915 2.28032,6.74411 4.42774,7.72266 1.08217,0.49312 5.89712,0.92544 10.69921,0.96094 7.86707,0.0582 8.97016,-0.16801 11.14844,-2.28711 1.87496,-1.82404 2.51759,-3.53497 2.86524,-7.62695 0.88321,-10.39589 -1.48468,-12.73015 -13.96485,-13.75782 -6.45327,-0.53138 -8.33008,-1.83776 -8.33008,-5.80273 0,-3.67857 1.27563,-4.68152 6.99415,-5.50391 4.31346,-0.62034 4.93132,-0.45013 6.85742,1.90039 2.85176,3.48017 7.77364,3.66686 7.74414,0.29297 -0.0491,-5.6215 -7.25998,-9.3511 -14.92969,-9.02344 z m -145.36523,0.89844 0,20.48633 0,20.48828 3.11132,0 3.11133,0 0.26563,-6.875 0.26758,-6.875 4.44335,-0.31836 c 8.68818,-0.622 11.31836,1.48018 11.31836,9.04883 l 0,5.01953 3.15235,0 3.15039,0 0,-6.28516 c 0,-6.56897 -1.51519,-10.00762 -4.41602,-10.01562 -0.83892,-0.002 -0.27419,-0.80698 1.35938,-1.93359 3.1713,-2.18711 4.39739,-7.33191 3.41015,-14.31446 -0.97779,-6.91572 -2.38445,-7.59432 -16.64062,-8.03711 l -12.5332,-0.38867 z m -199.94336,0.0332 0,20.4707 0,20.4707 3.11132,0 3.11133,0 0.26563,-6.875 0.26758,-6.875 5.13867,-0.30469 c 3.37933,-0.20001 6.07782,0.2443 7.88086,1.29883 2.55429,1.4939 2.74218,1.99005 2.74218,7.24219 l 0,5.63672 3.37305,-0.31641 3.375,-0.31445 -0.14648,-5.9375 c -0.15321,-6.19986 -1.89786,-9.84847 -4.71485,-9.85547 -0.83643,-0.002 -0.26376,-0.81454 1.37305,-1.94336 3.25729,-2.2464 4.38558,-6.76612 3.44922,-13.82812 -0.98672,-7.4419 -2.2962,-8.10891 -16.71094,-8.51563 l -12.51562,-0.35351 z m -204.44532,0.0742 0,20.46289 0,20.46485 11.9336,-0.28516 11.93359,-0.2832 0,-2.54688 c 0,-2.49784 -0.16075,-2.55706 -8.39844,-3.05664 l -8.398438,-0.50974 -0.158203,-16.80664 -0.158203,-16.80664 -3.376953,-0.31641 -3.376953,-0.31641 z m 266.86133,0.0312 -2.35156,7.42969 c -1.29369,4.08719 -3.83927,12.70371 -5.65625,19.14649 -1.81697,6.44278 -3.50812,12.31806 -3.75781,13.05664 -0.33717,0.99732 0.4268,1.26034 2.96875,1.01953 3.0123,-0.28538 3.5493,-0.75276 4.47656,-3.89063 l 1.05273,-3.56445 7.86133,-0.29492 7.86133,-0.29688 1.42969,4.11524 c 1.27345,3.66655 1.75644,4.11523 4.44336,4.11523 1.6586,0 3.01562,-0.51884 3.01562,-1.1543 0,-1.09523 -3.87289,-14.65496 -8.98047,-31.4414 l -2.32422,-7.63867 -5.01953,-0.30079 -5.01953,-0.30078 z m 247.40625,0.0332 -12.20117,0.28515 -12.20117,0.28321 0.0215,19.60742 c 0.012,10.7836 0.0315,19.83539 0.043,20.11719 0.0115,0.28012 5.4924,0.50976 12.17969,0.50976 l 12.1582,0 0,-3.05469 0,-3.05664 -9.00586,0 -9.00586,0 0,-5.60156 0,-5.60351 8.61328,0 8.61329,0 -0.28321,-3.25586 -0.28125,-3.25586 -8.10742,-0.0547 -8.10547,-0.0547 -0.27148,-5.34766 -0.27344,-5.34765 9.05469,0 9.05273,0 0,-3.08399 0,-3.08593 z m -459.85351,0.0586 -2.5625,8.91211 c -1.40896,4.90211 -4.09864,14.07033 -5.97852,20.37305 l -3.41797,11.45898 3.40235,0 c 3.14023,0 3.51535,-0.31859 4.83398,-4.11523 l 1.42969,-4.11524 7.85937,0.29688 7.86133,0.29492 1.05469,3.56445 c 0.92726,3.13787 1.46231,3.60525 4.47461,3.89063 2.54139,0.24076 3.30669,-0.0224 2.9707,-1.01953 -0.24887,-0.73858 -2.15319,-7.30085 -4.23242,-14.58399 -2.07924,-7.28314 -4.61852,-15.87823 -5.64258,-19.09961 l -1.86133,-5.85742 -5.0957,0 -5.0957,0 z m 43.75586,0 0,20.37305 0,20.37109 11.12304,0 c 14.05636,0 16.44554,-0.85734 17.75781,-6.36914 1.30312,-5.47329 0.39327,-10.39488 -2.37695,-12.85937 l -2.24805,-2 2.39454,-2.70899 c 2.12897,-2.40784 2.33422,-3.23546 1.83984,-7.46484 -0.38759,-3.3159 -1.25611,-5.45332 -2.86523,-7.05078 -2.13981,-2.12426 -3.16133,-2.29102 -13.9668,-2.29102 l -11.6582,0 z m 68.50976,0 c -15.1087,0 -16.73041,2.18589 -16.06055,21.64453 0.48337,14.04134 0.8333,15.50967 4.17383,17.5625 3.16987,1.94794 17.1534,2.02642 21.18946,0.11914 4.12937,-1.95137 5.04687,-5.62726 5.04687,-20.22656 l 0,-12.17383 -3.0625,-3.46289 c -3.03539,-3.43301 -3.13428,-3.46289 -11.28711,-3.46289 z m 135.9375,0 0,3.05664 c 0,3.05586 -0.002,3.05469 5.40235,3.05469 l 5.40429,0 0,17.31641 0,17.3164 3.15235,0 3.15234,0 0,-17.3164 0,-17.31641 5.4043,0 c 5.40388,0 5.40429,0.001 5.40429,-3.05469 l 0,-3.05664 -13.96093,0 -13.95899,0 z m 155.81055,0 0,20.37305 0,20.37109 3.15234,0 3.15235,0 0,-20.37109 0,-20.37305 -3.15235,0 -3.15234,0 z m -93.31446,0.50977 c -10.29503,0 -10.44124,0.0323 -12.58984,2.85742 -2.07151,2.72365 -2.17144,3.51319 -2.15234,16.80664 0.0212,14.78696 0.48858,16.62401 4.93359,19.38867 2.48977,1.54855 17.46798,1.45881 20.26367,-0.12109 4.38413,-2.47756 5.52554,-7.03013 5.22461,-20.83008 -0.26319,-12.06874 -0.34787,-12.54314 -2.76758,-15.2793 -2.44116,-2.76033 -2.73111,-2.82226 -12.91211,-2.82226 z m -154.36328,5.51953 7.42188,0.29492 c 7.18502,0.28643 7.45984,0.39091 8.66211,3.23437 0.99027,2.34205 1.03132,3.73389 0.19922,6.875 l -1.04493,3.93946 -7.61914,0 -7.61914,0 0,-7.17188 0,-7.17187 z m -106.27539,0.082 6.57422,0 c 7.35474,0 8.73633,0.88704 8.73633,5.60351 0,1.73675 -0.48565,3.70662 -1.08008,4.37891 -0.6432,0.72746 -3.74345,1.22266 -7.65625,1.22266 l -6.57422,0 0,-5.60157 0,-5.60351 z m 61.51367,0 c 3.21232,0 6.14399,0.53063 6.75586,1.22265 0.71811,0.81219 1.08008,5.24439 1.08008,13.20704 0,10.80561 -0.17138,12.08631 -1.74218,13.03711 -0.95815,0.57995 -4.17769,1.05468 -7.1543,1.05468 -7.31029,0 -7.93516,-1.11432 -8.03711,-14.33593 -0.0999,-12.95649 0.68859,-14.18555 9.09765,-14.18555 z m 106.01368,0 c 0.33829,0 1.73118,4.20733 3.0957,9.34961 1.36451,5.14228 2.68634,9.95505 2.9375,10.69531 0.35208,1.03768 -1.01036,1.3457 -5.94531,1.3457 -3.52049,0 -6.40039,-0.21212 -6.40039,-0.47265 0,-0.45044 0.79981,-3.41267 4.20117,-15.57032 0.82288,-2.94128 1.77305,-5.34765 2.11133,-5.34765 z m 93.5957,0 c 7.72335,0 8.16992,0.78086 8.16992,14.26172 0,8.69577 -0.30318,11.40155 -1.41601,12.66015 -0.99048,1.12023 -3.13808,1.59961 -7.1543,1.59961 -7.80511,0 -8.54297,-1.2501 -8.54297,-14.48633 0,-12.57892 0.9284,-14.03515 8.94336,-14.03515 z m 45.0957,0 7.02539,0 c 4.26305,0 7.44961,0.48088 8.10547,1.22265 0.59442,0.67229 1.08203,3.3311 1.08203,5.90821 0,2.57712 -0.48761,5.23591 -1.08203,5.9082 -0.65586,0.74177 -3.84242,1.22266 -8.10547,1.22266 l -7.02539,0 0,-7.13086 0,-7.13086 z m -351.09179,0.49414 c 0.49872,-0.56001 6.14453,18.04265 6.14453,20.24609 0,0.74078 -11.1835,0.90509 -11.83008,0.17383 -0.48359,-0.54695 4.76045,-19.38111 5.68555,-20.41992 z m 45.32226,16.3125 7.04688,0.12695 c 3.8757,0.0695 7.44763,0.58074 7.9375,1.13477 1.29769,1.46771 1.23613,7.07299 -0.0977,8.89062 -0.85462,1.16465 -2.96771,1.5625 -8.28711,1.5625 l -7.13867,0 0.26953,-5.85742 0.26953,-5.85742 z"
           id="path4201"
           inkscape:connector-curvature="0" />
        <path
           style="fill:#06614d;fill-opacity:1"
           d="m 134.46058,0 -0.25781,23.99219 -0.25586,23.99219 15.75977,0 15.76172,0 0,-9.93164 0,-9.9336 24.76757,-0.28515 c 32.14849,-0.37133 38.88927,0.5147 45.75,6.01562 2.47543,1.98479 5.58789,8.557 5.58789,11.80078 l 0,2.33203 15.87891,0 15.88086,0 -0.45703,-7.38476 C 271.73559,22.10368 263.20923,10.49045 245.6266,3.48633 L 238.42152,0.61719 186.44105,0.3086 134.46058,0 Z m 480.42969,0.006 -5.2989,6.41602 c -2.9142,3.5294 -7.575,9.60806 -10.3574,13.50586 -2.7823,3.8978 -6.7159,9.11352 -8.7422,11.59179 l -3.6836,4.50586 -5.3222,-7.11523 c -2.9273,-3.91373 -8.9715,-11.99567 -13.4297,-17.95898 l -8.1055,-10.8418 -32.4219,0.0117 -32.4238,0.0117 -8.3144,10.9375 c -4.5734,6.01567 -10.5996,14.03086 -13.3907,17.8125 -2.791,3.78163 -5.409,6.87695 -5.8183,6.87695 -0.4093,0 -1.3182,-0.92814 -2.0196,-2.06055 -0.7012,-1.1324 -2.7511,-3.86177 -4.5546,-6.0664 -1.8036,-2.20465 -3.2793,-4.28235 -3.2793,-4.61719 0,-0.33483 -3.9059,-5.62546 -8.6797,-11.75781 l -8.6797,-11.1504 -20.7851,0 -20.7872,0 4.9239,5.74805 c 2.7075,3.16144 5.5304,6.52223 6.2734,7.46875 0.743,0.94654 7.4007,9.13172 14.7949,18.18946 l 13.4453,16.46874 29.3906,0 29.3926,0 14.3555,-17.43554 c 7.8952,-9.58935 14.6383,-17.94705 14.9863,-18.57227 0.8191,-1.47134 2.6724,0.56888 18.2813,20.1211 l 12.6093,15.79492 29.5313,0.0449 29.5332,0.0469 7.4688,-8.9121 c 4.108,-4.90212 12.824,-15.5601 19.3671,-23.6836 L 655.04647,0.6173 634.96837,0.31066 614.89027,0.00597 Z m -526.425771,0.10156 0,58.06055 0,58.0625 15.986331,0 15.98631,0 -0.24023,-58.0625 -0.24023,-58.06055 -15.74609,0 -15.746091,0 z m 196.339871,0 0,23.9375 0,23.9375 15.7617,0 15.7617,0 0,-10.69531 0,-10.69531 40.9785,0 40.9785,0 0,-13.24219 0,-13.24219 -56.7402,0 -56.7402,0 z m 0,65.19141 0,25.46484 0,25.4668 56.291,0 56.289,0 0,-13.75195 0,-13.75196 -40.5293,0 -40.5273,0 0,-11.71288 0,-11.71485 -15.7617,0 -15.7617,0 z m -11.70902,0.9707 -15.4375,0.2793 -15.4375,0.27735 -1.09571,4.88671 c -1.2915,5.75712 -4.87374,10.43602 -9.98828,13.04688 -3.3348,1.70233 -6.51389,1.88329 -33.77343,1.92969 -16.55105,0.0286 -30.59956,0.0396 -31.21875,0.0254 -0.82408,-0.0189 -1.125,-2.7548 -1.125,-10.21094 l 0,-10.18555 -15.3125,0 -15.31055,0 0,24.95507 0,24.95704 49.76172,-0.0176 c 53.69119,-0.0191 56.88369,-0.28194 66.97265,-5.50586 14.66678,-7.59423 21.96485,-20.04541 21.96485,-37.46875 l 0,-6.96875 z m 167.35152,0.0488 -8.3125,9.93164 c -4.5727,5.46235 -13.7,16.57764 -20.2812,24.70118 l -11.9649,14.76953 19.6875,0.50976 c 10.8288,0.28012 20.1479,0.28012 20.709,0 0.9803,-0.48937 5.083,-5.77628 20.5156,-26.44141 l 7.1231,-9.53906 1.7422,2.45508 c 0.9577,1.35096 3.3355,4.39218 5.2851,6.7578 1.9496,2.36564 3.5888,4.65818 3.6426,5.09375 0.054,0.43557 3.7655,5.49487 8.248,11.24415 l 8.1504,10.45313 32.8809,-0.26563 32.8809,-0.26757 12.9804,-17.56447 c 7.1385,-9.66036 13.3189,-17.32496 13.7364,-17.03319 0.4174,0.29177 6.5074,8.29394 13.5332,17.78319 l 12.7753,17.25392 21.0469,0.28906 c 11.5757,0.15946 20.9368,-0.0799 20.8028,-0.5332 -0.1341,-0.45331 -9.3114,-11.79826 -20.3926,-25.21095 l -20.1465,-24.38671 -27.6504,0 -27.6504,0 -16.0488,19.35352 c -8.8271,10.64458 -16.2161,19.35351 -16.4199,19.35351 -0.4501,0 0.7046,1.37838 -17.2774,-20.62695 l -14.7754,-18.08008 -27.4101,0 -27.4102,0 z"
           id="path4201-3-3"
           inkscape:connector-curvature="0" />
      </g>
    </g>
  </g>
</svg>
